
<svg xmlns="http://www.w3.org/2000/svg" xmlns:xlink="http://www.w3.org/1999/xlink" width="500" zoomAndPan="magnify" viewBox="0 0 375 374.999991" height="500" preserveAspectRatio="xMidYMid meet" version="1.0"><defs><clipPath id="14c49c8516"><path d="M 0 316 L 375 316 L 375 356.53125 L 0 356.53125 Z M 0 316 " clip-rule="nonzero"/></clipPath><clipPath id="3c388536b5"><path d="M 26 18.28125 L 349 18.28125 L 349 256 L 26 256 Z M 26 18.28125 " clip-rule="nonzero"/></clipPath><clipPath id="66e9dc5029"><path d="M 164.105469 202 L 186 202 L 186 208 L 164.105469 208 Z M 164.105469 202 " clip-rule="nonzero"/></clipPath><clipPath id="215b818f7c"><path d="M 167 204 L 186 204 L 186 208.785156 L 167 208.785156 Z M 167 204 " clip-rule="nonzero"/></clipPath><clipPath id="cbb44d0bb4"><path d="M 189 202 L 210.605469 202 L 210.605469 208 L 189 208 Z M 189 202 " clip-rule="nonzero"/></clipPath><clipPath id="f3a1a5947a"><path d="M 188 204 L 207 204 L 207 208.785156 L 188 208.785156 Z M 188 204 " clip-rule="nonzero"/></clipPath><clipPath id="63674fde54"><path d="M 164.105469 190 L 187 190 L 187 204 L 164.105469 204 Z M 164.105469 190 " clip-rule="nonzero"/></clipPath><clipPath id="de5eac5f71"><path d="M 186 190 L 210.605469 190 L 210.605469 204 L 186 204 Z M 186 190 " clip-rule="nonzero"/></clipPath><clipPath id="9ef465a508"><path d="M 172 166.035156 L 202 166.035156 L 202 190 L 172 190 Z M 172 166.035156 " clip-rule="nonzero"/></clipPath></defs><g clip-path="url(#14c49c8516)"><path fill="#1f628e" d="M 187.5 326.699219 C 261.703125 326.699219 328.476562 338.121094 375.003906 356.347656 C 339.070312 332.351562 268.582031 316.039062 187.5 316.039062 C 106.417969 316.039062 35.929688 332.351562 -0.00390625 356.347656 C 46.523438 338.121094 113.296875 326.699219 187.5 326.699219 " fill-opacity="1" fill-rule="nonzero"/></g><path fill="#1f628e" d="M 158.535156 219.3125 L 136.964844 197.746094 L 93.25 241.464844 L 93.25 325.542969 C 96.199219 325.019531 99.1875 324.519531 102.214844 324.039062 L 102.214844 245.179688 L 136.964844 210.421875 L 149.574219 223.027344 L 149.574219 318.859375 C 152.539062 318.664062 155.527344 318.496094 158.535156 318.351562 L 158.535156 231.992188 L 171.722656 245.179688 L 171.722656 317.851562 C 174.695312 317.773438 177.6875 317.71875 180.6875 317.683594 L 180.6875 241.464844 Z M 209.867188 238.585938 L 209.867188 225.90625 L 194.3125 241.464844 L 194.3125 317.683594 C 197.3125 317.71875 200.304688 317.773438 203.277344 317.851562 L 203.277344 245.179688 Z M 238.035156 197.746094 L 225.425781 210.347656 L 225.425781 173.1875 L 192.40625 134.445312 L 192.40625 114.867188 L 214.105469 114.867188 L 214.105469 105.898438 L 192.40625 105.898438 L 192.40625 85.101562 L 183.4375 85.101562 L 183.4375 105.898438 L 161.742188 105.898438 L 161.742188 114.867188 L 183.4375 114.867188 L 183.4375 133.453125 L 149.574219 173.1875 L 149.574219 200.996094 L 158.535156 209.960938 L 158.535156 176.492188 L 187.5 142.515625 L 216.464844 176.492188 L 216.464844 200.183594 L 216.480469 200.183594 L 216.480469 248.066406 L 216.464844 248.066406 L 216.464844 318.351562 C 219.46875 318.496094 222.460938 318.664062 225.425781 318.859375 L 225.425781 223.027344 L 238.035156 210.421875 L 272.785156 245.179688 L 272.785156 324.039062 C 275.8125 324.519531 278.800781 325.019531 281.75 325.542969 L 281.75 241.464844 L 238.035156 197.746094 " fill-opacity="1" fill-rule="nonzero"/><g clip-path="url(#3c388536b5)"><path fill="#1f628e" d="M 34.023438 199.210938 C 34.023438 114.449219 102.738281 45.734375 187.5 45.734375 C 272.261719 45.734375 340.976562 114.449219 340.976562 199.210938 C 340.976562 218.933594 337.25 237.789062 330.472656 255.109375 C 342.277344 232.679688 348.96875 207.136719 348.96875 180.027344 C 348.96875 90.851562 276.675781 18.558594 187.5 18.558594 C 98.324219 18.558594 26.03125 90.851562 26.03125 180.027344 C 26.03125 207.136719 32.722656 232.679688 44.527344 255.109375 C 37.75 237.789062 34.023438 218.933594 34.023438 199.210938 " fill-opacity="1" fill-rule="nonzero"/></g><g clip-path="url(#66e9dc5029)"><path fill="#214953" d="M 185.082031 204.859375 C 185.082031 204.859375 175.820312 200.390625 166.597656 204.046875 L 164.453125 207.355469 C 164.453125 207.355469 174.089844 201.394531 185.082031 204.859375 Z M 185.082031 204.859375 " fill-opacity="1" fill-rule="nonzero"/></g><g clip-path="url(#215b818f7c)"><path fill="#214953" d="M 169.945312 205.863281 L 167.828125 208.785156 C 167.828125 208.785156 176.289062 203.800781 185.898438 206.152344 C 185.898438 206.152344 178.0625 202.597656 169.945312 205.863281 Z M 169.945312 205.863281 " fill-opacity="1" fill-rule="nonzero"/></g><g clip-path="url(#cbb44d0bb4)"><path fill="#214953" d="M 189.628906 204.859375 C 200.625 201.394531 210.257812 207.355469 210.257812 207.355469 L 208.113281 204.046875 C 198.894531 200.390625 189.628906 204.859375 189.628906 204.859375 Z M 189.628906 204.859375 " fill-opacity="1" fill-rule="nonzero"/></g><g clip-path="url(#f3a1a5947a)"><path fill="#214953" d="M 188.816406 206.152344 C 198.421875 203.804688 206.886719 208.785156 206.886719 208.785156 L 204.773438 205.863281 C 196.648438 202.597656 188.816406 206.152344 188.816406 206.152344 Z M 188.816406 206.152344 " fill-opacity="1" fill-rule="nonzero"/></g><g clip-path="url(#63674fde54)"><path fill="#2978ce" d="M 184.035156 203.515625 C 184.609375 202.457031 184.695312 201.214844 183.554688 199.90625 C 180.410156 196.296875 186.929688 194.894531 186.929688 194.894531 C 181.695312 189.050781 172.003906 191.199219 172.003906 191.199219 L 164.113281 203.316406 C 172.308594 199.949219 180.015625 201.9375 184.035156 203.515625 Z M 184.035156 203.515625 " fill-opacity="1" fill-rule="nonzero"/></g><g clip-path="url(#de5eac5f71)"><path fill="#2978ce" d="M 191.460938 203.222656 C 195.644531 201.71875 202.90625 200.152344 210.601562 203.316406 L 202.710938 191.199219 C 202.710938 191.199219 193.019531 189.050781 187.785156 194.894531 C 187.785156 194.894531 187.300781 195.160156 186.929688 195.617188 C 186.507812 196.128906 186.230469 196.878906 186.929688 197.757812 C 187.128906 198.011719 187.40625 198.273438 187.785156 198.542969 C 188.066406 198.746094 188.40625 198.949219 188.8125 199.164062 C 190.8125 200.199219 191.414062 201.78125 191.460938 203.222656 Z M 191.460938 203.222656 " fill-opacity="1" fill-rule="nonzero"/></g><g clip-path="url(#9ef465a508)"><path fill="#f7931e" d="M 173.902344 186.171875 C 174.4375 187.378906 175.144531 188.5 175.996094 189.476562 C 174.660156 187.257812 173.894531 184.761719 173.839844 182.261719 C 173.835938 181.949219 173.828125 181.636719 173.84375 181.328125 C 173.847656 181.015625 173.894531 180.707031 173.921875 180.398438 C 173.953125 179.777344 174.113281 179.175781 174.222656 178.574219 C 174.289062 178.273438 174.398438 177.980469 174.476562 177.6875 L 174.605469 177.246094 C 174.65625 177.101562 174.71875 176.960938 174.773438 176.816406 L 175.117188 175.96875 L 175.542969 175.15625 C 176.144531 174.097656 176.84375 173.09375 177.695312 172.234375 L 178.003906 171.902344 C 178.105469 171.792969 178.230469 171.703125 178.339844 171.601562 L 179.023438 171.003906 C 179.519531 170.664062 179.984375 170.277344 180.519531 170 C 182.574219 168.742188 184.96875 168.136719 187.355469 168.101562 C 189.75 168.121094 192.144531 168.734375 194.199219 169.996094 C 194.730469 170.273438 195.195312 170.664062 195.695312 171.003906 L 196.375 171.597656 C 196.488281 171.699219 196.609375 171.789062 196.710938 171.898438 L 197.023438 172.230469 C 197.871094 173.09375 198.578125 174.09375 199.175781 175.152344 L 199.601562 175.964844 L 199.945312 176.8125 C 200 176.957031 200.0625 177.097656 200.113281 177.242188 L 200.242188 177.683594 C 200.320312 177.980469 200.429688 178.269531 200.5 178.570312 C 200.609375 179.175781 200.769531 179.773438 200.796875 180.394531 C 200.820312 180.703125 200.867188 181.011719 200.878906 181.324219 C 200.890625 181.632812 200.882812 181.945312 200.878906 182.257812 C 200.824219 184.757812 200.058594 187.257812 198.722656 189.476562 C 199.574219 188.496094 200.277344 187.375 200.816406 186.171875 C 201.359375 184.960938 201.699219 183.664062 201.886719 182.335938 C 201.976562 181.671875 201.996094 181 201.976562 180.324219 C 202 179.648438 201.890625 178.980469 201.820312 178.304688 C 201.769531 177.972656 201.6875 177.640625 201.617188 177.308594 L 201.503906 176.808594 C 201.460938 176.644531 201.402344 176.484375 201.347656 176.324219 L 201.023438 175.355469 L 200.605469 174.417969 C 200.476562 174.101562 200.304688 173.804688 200.136719 173.507812 C 199.960938 173.214844 199.8125 172.902344 199.613281 172.625 L 199.015625 171.789062 C 198.816406 171.507812 198.574219 171.265625 198.351562 171.003906 L 198.011719 170.617188 C 197.902344 170.488281 197.765625 170.378906 197.644531 170.257812 L 196.894531 169.550781 C 196.347656 169.132812 195.824219 168.679688 195.226562 168.332031 C 192.90625 166.824219 190.125 166.089844 187.367188 166.035156 L 186.332031 166.089844 L 185.8125 166.117188 L 185.300781 166.199219 C 184.957031 166.253906 184.613281 166.300781 184.277344 166.363281 L 183.269531 166.625 C 182.929688 166.699219 182.609375 166.828125 182.289062 166.949219 C 181.96875 167.078125 181.636719 167.179688 181.324219 167.335938 L 180.398438 167.792969 C 180.082031 167.933594 179.804688 168.144531 179.507812 168.324219 C 178.90625 168.671875 178.386719 169.128906 177.839844 169.542969 L 177.089844 170.25 C 176.964844 170.371094 176.835938 170.480469 176.71875 170.609375 L 176.378906 170.996094 C 176.160156 171.261719 175.914062 171.5 175.71875 171.78125 L 175.117188 172.617188 C 174.914062 172.894531 174.769531 173.207031 174.59375 173.5 C 174.421875 173.796875 174.25 174.089844 174.121094 174.410156 L 173.707031 175.34375 L 173.382812 176.316406 C 173.328125 176.476562 173.269531 176.636719 173.226562 176.800781 L 173.113281 177.296875 C 173.042969 177.632812 172.960938 177.957031 172.910156 178.296875 C 172.839844 178.972656 172.730469 179.640625 172.753906 180.316406 C 172.738281 180.988281 172.753906 181.660156 172.847656 182.328125 C 173.015625 183.667969 173.363281 184.964844 173.902344 186.171875 Z M 173.902344 186.171875 " fill-opacity="1" fill-rule="nonzero"/></g><path fill="#214953" d="M 186.09375 177.761719 L 181.695312 177.761719 L 181.695312 179.9375 L 186.402344 179.9375 L 186.613281 192.457031 L 188.101562 192.457031 L 188.3125 179.9375 L 193.019531 179.9375 L 193.019531 177.761719 L 188.347656 177.761719 L 188.445312 172.289062 L 186.269531 172.289062 L 186.382812 178.898438 L 186.371094 178.960938 Z M 186.09375 177.761719 " fill-opacity="1" fill-rule="nonzero"/></svg>