<svg xmlns="http://www.w3.org/2000/svg" xmlns:xlink="http://www.w3.org/1999/xlink" width="300" zoomAndPan="magnify" viewBox="0 0 224.87999 74.999997" height="100" preserveAspectRatio="xMidYMid meet" version="1.0"><defs><g/><clipPath id="11576aaddf"><path d="M 0 63 L 77 63 L 77 72.53125 L 0 72.53125 Z M 0 63 " clip-rule="nonzero"/></clipPath><clipPath id="c5b9fe8147"><path d="M 5 2.820312 L 72 2.820312 L 72 52 L 5 52 Z M 5 2.820312 " clip-rule="nonzero"/></clipPath><clipPath id="66ab9b1a6c"><path d="M 32.421875 38.25 L 44.414062 38.25 L 44.414062 44.996094 L 32.421875 44.996094 Z M 32.421875 38.25 " clip-rule="nonzero"/></clipPath><clipPath id="4d333581ac"><path d="M 219 34 L 224.761719 34 L 224.761719 41 L 219 41 Z M 219 34 " clip-rule="nonzero"/></clipPath><clipPath id="2c6c4d019a"><path d="M 191.234375 61.519531 L 199.226562 61.519531 L 199.226562 67.039062 L 191.234375 67.039062 Z M 191.234375 61.519531 " clip-rule="nonzero"/></clipPath><clipPath id="4b0147523c"><path d="M 165.589844 33 L 172 33 L 172 42 L 165.589844 42 Z M 165.589844 33 " clip-rule="nonzero"/></clipPath><clipPath id="48019dd89e"><path d="M 190 7.820312 L 201 7.820312 L 201 14 L 190 14 Z M 190 7.820312 " clip-rule="nonzero"/></clipPath><clipPath id="11c24f5003"><path d="M 75.4375 1.121094 L 108.96875 1.121094 L 108.96875 28.855469 L 75.4375 28.855469 Z M 75.4375 1.121094 " clip-rule="nonzero"/></clipPath></defs><g clip-path="url(#11576aaddf)"><path fill="#ffffff" d="M 38.421875 66.019531 C 53.628906 66.019531 67.3125 68.359375 76.847656 72.09375 C 69.484375 67.175781 55.039062 63.835938 38.421875 63.835938 C 21.808594 63.835938 7.363281 67.175781 0 72.09375 C 9.535156 68.359375 23.21875 66.019531 38.421875 66.019531 " fill-opacity="1" fill-rule="nonzero"/></g><path fill="#ffffff" d="M 32.488281 44.011719 L 28.066406 39.59375 L 19.109375 48.554688 L 19.109375 65.78125 C 19.714844 65.675781 20.324219 65.570312 20.945312 65.472656 L 20.945312 49.3125 L 28.066406 42.191406 L 30.652344 44.773438 L 30.652344 64.414062 C 31.257812 64.371094 31.871094 64.339844 32.488281 64.308594 L 32.488281 46.613281 L 35.191406 49.3125 L 35.191406 64.207031 C 35.800781 64.191406 36.410156 64.179688 37.027344 64.171875 L 37.027344 48.554688 Z M 43.007812 47.964844 L 43.007812 45.363281 L 39.820312 48.554688 L 39.820312 64.171875 C 40.433594 64.179688 41.046875 64.191406 41.65625 64.207031 L 41.65625 49.3125 Z M 48.777344 39.59375 L 46.195312 42.175781 L 46.195312 34.5625 L 39.429688 26.621094 L 39.429688 22.609375 L 43.875 22.609375 L 43.875 20.773438 L 39.429688 20.773438 L 39.429688 16.511719 L 37.589844 16.511719 L 37.589844 20.773438 L 33.144531 20.773438 L 33.144531 22.609375 L 37.589844 22.609375 L 37.589844 26.417969 L 30.652344 34.5625 L 30.652344 40.257812 L 32.488281 42.097656 L 32.488281 35.238281 L 38.421875 28.277344 L 44.359375 35.238281 L 44.359375 40.09375 L 44.363281 40.09375 L 44.363281 49.90625 L 44.359375 49.90625 L 44.359375 64.308594 C 44.972656 64.339844 45.585938 64.371094 46.195312 64.414062 L 46.195312 44.773438 L 48.777344 42.191406 L 55.898438 49.3125 L 55.898438 65.472656 C 56.519531 65.570312 57.132812 65.675781 57.738281 65.78125 L 57.738281 48.554688 L 48.777344 39.59375 " fill-opacity="1" fill-rule="nonzero"/><g clip-path="url(#c5b9fe8147)"><path fill="#ffffff" d="M 6.972656 39.894531 C 6.972656 22.523438 21.054688 8.445312 38.421875 8.445312 C 55.792969 8.445312 69.875 22.523438 69.875 39.894531 C 69.875 43.933594 69.109375 47.800781 67.722656 51.347656 C 70.140625 46.753906 71.511719 41.519531 71.511719 35.960938 C 71.511719 17.6875 56.695312 2.875 38.421875 2.875 C 20.148438 2.875 5.335938 17.6875 5.335938 35.960938 C 5.335938 41.519531 6.707031 46.753906 9.125 51.347656 C 7.734375 47.800781 6.972656 43.933594 6.972656 39.894531 " fill-opacity="1" fill-rule="nonzero"/></g><g clip-path="url(#66ab9b1a6c)"><path fill="#ffd015" d="M 37.953125 42.699219 C 37.738281 42.699219 37.566406 42.875 37.566406 43.09375 C 37.566406 43.3125 37.738281 43.488281 37.953125 43.488281 C 38.167969 43.488281 38.339844 43.3125 38.339844 43.09375 C 38.339844 42.875 38.167969 42.699219 37.953125 42.699219 Z M 33.140625 42.566406 C 33.539062 42.410156 33.792969 42.898438 34.191406 42.683594 C 34.9375 42.277344 35.679688 41.605469 36.242188 40.976562 C 36.734375 40.425781 36.886719 40.324219 37.59375 40.230469 C 37.648438 39.289062 37.652344 38.488281 38.207031 38.300781 C 38.363281 38.25 38.503906 38.253906 38.65625 38.308594 C 39.199219 38.503906 39.203125 39.296875 39.257812 40.230469 C 39.964844 40.324219 40.117188 40.425781 40.609375 40.976562 C 41.171875 41.609375 41.914062 42.28125 42.660156 42.683594 C 43.058594 42.902344 43.3125 42.410156 43.710938 42.566406 L 43.714844 42.636719 C 43.195312 42.785156 43.527344 42.859375 43.84375 42.996094 C 43.988281 43.054688 44.203125 43.078125 44.292969 43.382812 C 44.421875 43.824219 43.199219 43.398438 43.035156 43.292969 C 42.636719 43.925781 42.445312 44.449219 42.1875 45.160156 C 41.199219 44.816406 40.75 44.234375 40.015625 43.496094 L 40.011719 44.179688 L 40.011719 44.617188 L 39.371094 44.617188 C 39.09375 44.160156 39.082031 43.667969 39.25 43.136719 C 39.441406 42.546875 39.785156 42.167969 39.8125 42.894531 C 39.828125 43.292969 39.683594 43.832031 39.679688 44 C 40.207031 43.28125 40.691406 42.246094 39.761719 41.636719 C 39.617188 41.542969 39.449219 41.472656 39.277344 41.433594 C 39.425781 41.332031 39.527344 41.15625 39.527344 40.960938 C 39.527344 40.644531 39.277344 40.386719 38.964844 40.386719 C 38.65625 40.386719 38.40625 40.644531 38.40625 40.960938 C 38.40625 41.164062 38.511719 41.34375 38.667969 41.445312 C 38.433594 41.511719 38.265625 41.644531 38.085938 41.796875 L 38.0625 41.820312 C 38.082031 41.757812 38.097656 41.691406 38.097656 41.621094 C 38.097656 41.308594 37.847656 41.058594 37.542969 41.058594 C 37.234375 41.058594 36.988281 41.308594 36.988281 41.621094 C 36.988281 41.898438 37.183594 42.128906 37.441406 42.179688 C 37.132812 42.308594 36.855469 42.511719 36.722656 42.839844 C 36.613281 43.113281 36.613281 43.394531 36.695312 43.636719 C 36.039062 44.304688 35.585938 44.835938 34.664062 45.160156 C 34.40625 44.445312 34.214844 43.925781 33.816406 43.292969 C 33.652344 43.394531 32.429688 43.824219 32.558594 43.382812 C 32.648438 43.078125 32.863281 43.054688 33.003906 42.992188 C 33.324219 42.859375 33.65625 42.785156 33.136719 42.636719 Z M 38.558594 44.617188 L 36.839844 44.617188 L 36.839844 44.179688 L 36.835938 43.910156 C 37.066406 44.234375 37.472656 44.421875 37.941406 44.304688 C 37.546875 44.097656 37.144531 43.773438 37.421875 43.085938 C 37.425781 43.539062 37.777344 43.667969 38.066406 43.578125 C 38.464844 43.453125 38.84375 42.589844 39.222656 42.324219 C 39.132812 42.5 39.085938 42.613281 39.007812 42.796875 C 38.867188 43.128906 38.664062 44.007812 38.558594 44.617188 " fill-opacity="1" fill-rule="evenodd"/></g><g fill="#ffffff" fill-opacity="1"><g transform="translate(72.860337, 53.296676)"><g><path d="M 5.90625 0 C 5.71875 0 5.625 -0.140625 5.625 -0.421875 C 5.625 -0.953125 6.003906 -1.550781 6.765625 -2.21875 C 7.253906 -2.707031 7.59375 -3.171875 7.78125 -3.609375 C 7.96875 -4.046875 8.175781 -4.878906 8.40625 -6.109375 L 11.015625 -20.984375 L 8.921875 -20.984375 C 7.273438 -20.984375 6.144531 -20.804688 5.53125 -20.453125 C 4.925781 -20.109375 4.625 -19.472656 4.625 -18.546875 C 4.625 -17.972656 4.710938 -17.472656 4.890625 -17.046875 C 5.078125 -16.628906 5.171875 -16.378906 5.171875 -16.296875 C 5.171875 -16.015625 5.003906 -15.617188 4.671875 -15.109375 C 4.335938 -14.597656 3.960938 -14.144531 3.546875 -13.75 C 3.128906 -13.363281 2.789062 -13.171875 2.53125 -13.171875 C 2.4375 -13.171875 2.359375 -13.207031 2.296875 -13.28125 C 2.242188 -13.363281 2.207031 -13.414062 2.1875 -13.4375 C 1.8125 -14.226562 1.625 -15.179688 1.625 -16.296875 C 1.625 -17.753906 1.992188 -19.078125 2.734375 -20.265625 C 3.484375 -21.460938 4.53125 -22.398438 5.875 -23.078125 C 7.21875 -23.765625 8.742188 -24.109375 10.453125 -24.109375 L 17.890625 -24.109375 C 19.296875 -24.109375 20.28125 -24.257812 20.84375 -24.5625 C 21.414062 -24.863281 21.703125 -25.40625 21.703125 -26.1875 C 21.703125 -26.71875 21.585938 -27.203125 21.359375 -27.640625 C 21.128906 -28.085938 21.015625 -28.367188 21.015625 -28.484375 C 21.015625 -28.671875 21.171875 -29.015625 21.484375 -29.515625 C 21.796875 -30.023438 22.132812 -30.492188 22.5 -30.921875 C 22.875 -31.359375 23.15625 -31.578125 23.34375 -31.578125 C 23.414062 -31.578125 23.472656 -31.554688 23.515625 -31.515625 C 23.554688 -31.484375 23.59375 -31.457031 23.625 -31.4375 C 23.945312 -31.039062 24.1875 -30.535156 24.34375 -29.921875 C 24.507812 -29.304688 24.59375 -28.664062 24.59375 -28 C 24.59375 -25.820312 23.785156 -24.109375 22.171875 -22.859375 C 20.566406 -21.609375 18.421875 -20.984375 15.734375 -20.984375 L 14.734375 -20.984375 L 11.84375 -4.546875 C 11.675781 -3.859375 11.398438 -3.347656 11.015625 -3.015625 L 11.015625 -2.984375 C 11.398438 -2.773438 11.863281 -2.671875 12.40625 -2.671875 C 12.726562 -2.671875 13.054688 -2.734375 13.390625 -2.859375 C 13.722656 -2.992188 13.9375 -3.0625 14.03125 -3.0625 C 14.144531 -3.0625 14.21875 -3.035156 14.25 -2.984375 C 14.289062 -2.941406 14.3125 -2.863281 14.3125 -2.75 C 14.3125 -2.539062 14.253906 -2.34375 14.140625 -2.15625 C 14.023438 -1.96875 13.953125 -1.851562 13.921875 -1.8125 C 13.367188 -1.132812 12.875 -0.660156 12.4375 -0.390625 C 12 -0.128906 11.570312 0 11.15625 0 C 10.945312 0 10.695312 -0.03125 10.40625 -0.09375 C 10.113281 -0.164062 9.910156 -0.21875 9.796875 -0.25 C 9.117188 -0.457031 8.539062 -0.5625 8.0625 -0.5625 C 7.550781 -0.5625 7.085938 -0.46875 6.671875 -0.28125 C 6.253906 -0.09375 6 0 5.90625 0 Z M 5.90625 0 "/></g></g></g><g fill="#ffffff" fill-opacity="1"><g transform="translate(93.905215, 53.296676)"><g><path d="M 1.078125 0.34375 C 0.703125 0.34375 0.515625 0.226562 0.515625 0 C 0.515625 -0.113281 0.597656 -0.4375 0.765625 -0.96875 C 0.992188 -1.644531 1.144531 -2.15625 1.21875 -2.5 C 1.445312 -3.726562 1.863281 -6.320312 2.46875 -10.28125 L 3.375 -15.90625 C 3.832031 -18.664062 4.414062 -20.992188 5.125 -22.890625 C 5.832031 -24.785156 6.71875 -26.328125 7.78125 -27.515625 C 8.613281 -28.441406 9.414062 -29.0625 10.1875 -29.375 C 10.96875 -29.6875 11.945312 -29.929688 13.125 -30.109375 C 13.863281 -30.222656 14.347656 -30.3125 14.578125 -30.375 C 14.816406 -30.4375 14.972656 -30.46875 15.046875 -30.46875 C 15.222656 -30.46875 15.3125 -30.335938 15.3125 -30.078125 C 15.3125 -29.867188 15.222656 -29.617188 15.046875 -29.328125 C 14.878906 -29.046875 14.671875 -28.773438 14.421875 -28.515625 C 14.046875 -28.171875 13.488281 -28 12.75 -28 C 12.03125 -27.925781 11.40625 -27.726562 10.875 -27.40625 C 10.34375 -27.082031 9.832031 -26.5625 9.34375 -25.84375 C 8.675781 -24.820312 8.144531 -23.503906 7.75 -21.890625 C 7.351562 -20.285156 6.945312 -17.910156 6.53125 -14.765625 L 6.078125 -11.421875 L 6.109375 -11.421875 C 8.546875 -14.828125 10.644531 -16.53125 12.40625 -16.53125 C 12.976562 -16.53125 13.414062 -16.335938 13.71875 -15.953125 C 14.019531 -15.578125 14.171875 -14.945312 14.171875 -14.0625 C 14.171875 -13.394531 14.066406 -12.515625 13.859375 -11.421875 C 13.398438 -9.015625 13.066406 -7.316406 12.859375 -6.328125 C 12.554688 -4.679688 12.40625 -3.773438 12.40625 -3.609375 C 12.40625 -3.148438 12.554688 -2.921875 12.859375 -2.921875 C 13.203125 -2.921875 13.523438 -3.144531 13.828125 -3.59375 C 14.128906 -4.039062 14.460938 -4.71875 14.828125 -5.625 C 14.941406 -5.945312 15.082031 -6.109375 15.25 -6.109375 C 15.457031 -6.109375 15.5625 -5.890625 15.5625 -5.453125 C 15.5625 -4.640625 15.304688 -3.773438 14.796875 -2.859375 C 14.285156 -1.953125 13.640625 -1.191406 12.859375 -0.578125 C 12.085938 0.0351562 11.320312 0.34375 10.5625 0.34375 C 9.40625 0.34375 8.828125 -0.414062 8.828125 -1.9375 C 8.828125 -2.539062 8.894531 -3.269531 9.03125 -4.125 C 9.164062 -4.988281 9.375 -6.09375 9.65625 -7.4375 C 9.84375 -8.332031 10.007812 -9.234375 10.15625 -10.140625 C 10.3125 -11.046875 10.398438 -11.773438 10.421875 -12.328125 L 10.421875 -12.546875 C 10.421875 -12.960938 10.289062 -13.171875 10.03125 -13.171875 C 9.644531 -13.171875 9.109375 -12.757812 8.421875 -11.9375 C 7.742188 -11.113281 7.085938 -10.085938 6.453125 -8.859375 C 5.828125 -7.628906 5.410156 -6.445312 5.203125 -5.3125 L 4.65625 -2.5 C 4.488281 -1.800781 4.03125 -1.148438 3.28125 -0.546875 C 2.53125 0.046875 1.796875 0.34375 1.078125 0.34375 Z M 1.078125 0.34375 "/></g></g></g><g fill="#ffffff" fill-opacity="1"><g transform="translate(110.574424, 53.296676)"><g><path d="M 2.890625 0.34375 C 2.171875 0.34375 1.609375 -0.015625 1.203125 -0.734375 C 0.796875 -1.453125 0.59375 -2.410156 0.59375 -3.609375 C 0.59375 -5.535156 1.0625 -7.503906 2 -9.515625 C 2.9375 -11.535156 4.210938 -13.207031 5.828125 -14.53125 C 7.453125 -15.863281 9.203125 -16.53125 11.078125 -16.53125 C 11.679688 -16.53125 12.273438 -16.457031 12.859375 -16.3125 C 13.453125 -16.175781 13.9375 -16.003906 14.3125 -15.796875 C 14.101562 -15.296875 13.960938 -14.878906 13.890625 -14.546875 C 13.828125 -14.222656 13.78125 -14.015625 13.75 -13.921875 C 13.59375 -13.085938 13.359375 -11.820312 13.046875 -10.125 C 12.734375 -8.425781 12.4375 -6.800781 12.15625 -5.25 C 12.019531 -4.550781 11.953125 -4.015625 11.953125 -3.640625 C 11.953125 -3.390625 11.988281 -3.207031 12.0625 -3.09375 C 12.144531 -2.976562 12.269531 -2.921875 12.4375 -2.921875 C 12.832031 -2.921875 13.191406 -3.15625 13.515625 -3.625 C 13.835938 -4.101562 14.179688 -4.769531 14.546875 -5.625 C 14.597656 -5.757812 14.65625 -5.875 14.71875 -5.96875 C 14.789062 -6.0625 14.882812 -6.109375 15 -6.109375 C 15.207031 -6.109375 15.3125 -5.945312 15.3125 -5.625 C 15.3125 -5.46875 15.300781 -5.34375 15.28125 -5.25 C 15.164062 -4.363281 14.863281 -3.484375 14.375 -2.609375 C 13.894531 -1.742188 13.300781 -1.035156 12.59375 -0.484375 C 11.882812 0.0664062 11.160156 0.34375 10.421875 0.34375 C 9.816406 0.34375 9.347656 0.125 9.015625 -0.3125 C 8.679688 -0.75 8.515625 -1.335938 8.515625 -2.078125 C 8.515625 -2.265625 8.535156 -2.546875 8.578125 -2.921875 L 8.75 -4.09375 L 8.6875 -4.09375 C 7.832031 -2.800781 6.851562 -1.738281 5.75 -0.90625 C 4.644531 -0.0703125 3.691406 0.34375 2.890625 0.34375 Z M 4.859375 -3.09375 C 5.367188 -3.09375 6.023438 -3.539062 6.828125 -4.4375 C 7.628906 -5.34375 8.375 -6.484375 9.0625 -7.859375 C 9.757812 -9.242188 10.222656 -10.617188 10.453125 -11.984375 L 10.703125 -13.34375 C 10.117188 -13.6875 9.582031 -13.859375 9.09375 -13.859375 C 8.351562 -13.859375 7.609375 -13.398438 6.859375 -12.484375 C 6.109375 -11.566406 5.492188 -10.382812 5.015625 -8.9375 C 4.546875 -7.488281 4.3125 -6.015625 4.3125 -4.515625 C 4.3125 -3.960938 4.347656 -3.585938 4.421875 -3.390625 C 4.503906 -3.191406 4.648438 -3.09375 4.859375 -3.09375 Z M 8.265625 -18.125 C 7.960938 -18.125 7.8125 -18.253906 7.8125 -18.515625 C 7.8125 -18.628906 7.851562 -18.726562 7.9375 -18.8125 C 8.019531 -18.894531 8.132812 -18.972656 8.28125 -19.046875 C 8.4375 -19.128906 8.609375 -19.238281 8.796875 -19.375 C 9.441406 -19.820312 9.945312 -20.3125 10.3125 -20.84375 C 10.6875 -21.375 11.0625 -22.195312 11.4375 -23.3125 C 11.550781 -23.65625 11.773438 -23.890625 12.109375 -24.015625 C 12.441406 -24.140625 12.921875 -24.203125 13.546875 -24.203125 C 13.898438 -24.203125 14.140625 -24.148438 14.265625 -24.046875 C 14.390625 -23.941406 14.453125 -23.753906 14.453125 -23.484375 C 14.453125 -22.742188 14.144531 -21.972656 13.53125 -21.171875 C 12.914062 -20.367188 12.132812 -19.675781 11.1875 -19.09375 C 10.238281 -18.519531 9.300781 -18.195312 8.375 -18.125 Z M 8.265625 -18.125 "/></g></g></g><g fill="#ffffff" fill-opacity="1"><g transform="translate(126.931089, 53.296676)"><g><path d="M 2.46875 0.34375 C 2.09375 0.34375 1.90625 0.21875 1.90625 -0.03125 C 1.90625 -0.125 1.960938 -0.367188 2.078125 -0.765625 C 2.191406 -1.066406 2.359375 -1.644531 2.578125 -2.5 C 2.734375 -3.175781 2.960938 -4.390625 3.265625 -6.140625 C 3.566406 -7.898438 3.84375 -9.613281 4.09375 -11.28125 C 4.207031 -12.03125 4.265625 -12.507812 4.265625 -12.71875 C 4.265625 -13.0625 4.160156 -13.234375 3.953125 -13.234375 C 3.742188 -13.234375 3.476562 -13.050781 3.15625 -12.6875 C 2.832031 -12.332031 2.488281 -11.804688 2.125 -11.109375 C 2.03125 -10.929688 1.921875 -10.765625 1.796875 -10.609375 C 1.679688 -10.460938 1.566406 -10.390625 1.453125 -10.390625 C 1.222656 -10.390625 1.109375 -10.582031 1.109375 -10.96875 C 1.109375 -11.59375 1.378906 -12.351562 1.921875 -13.25 C 2.472656 -14.144531 3.144531 -14.914062 3.9375 -15.5625 C 4.738281 -16.207031 5.507812 -16.53125 6.25 -16.53125 C 6.71875 -16.53125 7.085938 -16.367188 7.359375 -16.046875 C 7.640625 -15.722656 7.78125 -15.210938 7.78125 -14.515625 C 7.78125 -13.617188 7.6875 -12.585938 7.5 -11.421875 L 7.53125 -11.421875 C 10.007812 -14.828125 12.097656 -16.53125 13.796875 -16.53125 C 14.972656 -16.53125 15.5625 -15.707031 15.5625 -14.0625 C 15.5625 -13.34375 15.457031 -12.460938 15.25 -11.421875 C 14.695312 -8.710938 14.316406 -6.796875 14.109375 -5.671875 C 13.898438 -4.554688 13.796875 -3.878906 13.796875 -3.640625 C 13.796875 -3.160156 13.929688 -2.921875 14.203125 -2.921875 C 14.847656 -2.921875 15.507812 -3.820312 16.1875 -5.625 C 16.320312 -5.945312 16.472656 -6.109375 16.640625 -6.109375 C 16.910156 -6.109375 17.023438 -5.820312 16.984375 -5.25 C 16.890625 -4.4375 16.585938 -3.585938 16.078125 -2.703125 C 15.566406 -1.828125 14.9375 -1.097656 14.1875 -0.515625 C 13.4375 0.0546875 12.675781 0.34375 11.90625 0.34375 C 10.78125 0.34375 10.21875 -0.414062 10.21875 -1.9375 C 10.21875 -2.539062 10.285156 -3.269531 10.421875 -4.125 C 10.554688 -4.988281 10.765625 -6.09375 11.046875 -7.4375 C 11.234375 -8.332031 11.398438 -9.234375 11.546875 -10.140625 C 11.703125 -11.046875 11.789062 -11.773438 11.8125 -12.328125 L 11.8125 -12.609375 C 11.8125 -12.984375 11.695312 -13.171875 11.46875 -13.171875 C 11.070312 -13.171875 10.523438 -12.757812 9.828125 -11.9375 C 9.128906 -11.113281 8.472656 -10.085938 7.859375 -8.859375 C 7.253906 -7.628906 6.832031 -6.445312 6.59375 -5.3125 L 6.046875 -2.5 C 5.898438 -1.800781 5.453125 -1.148438 4.703125 -0.546875 C 3.953125 0.046875 3.207031 0.34375 2.46875 0.34375 Z M 2.46875 0.34375 "/></g></g></g><g fill="#ffffff" fill-opacity="1"><g transform="translate(145.02412, 53.296676)"><g><path d="M 1.078125 0.34375 C 0.703125 0.34375 0.515625 0.226562 0.515625 0 C 0.515625 -0.113281 0.597656 -0.4375 0.765625 -0.96875 C 0.992188 -1.644531 1.144531 -2.15625 1.21875 -2.5 C 1.445312 -3.726562 1.863281 -6.320312 2.46875 -10.28125 L 3.375 -15.90625 C 3.832031 -18.664062 4.414062 -20.992188 5.125 -22.890625 C 5.832031 -24.785156 6.71875 -26.328125 7.78125 -27.515625 C 8.613281 -28.441406 9.414062 -29.0625 10.1875 -29.375 C 10.96875 -29.6875 11.945312 -29.929688 13.125 -30.109375 C 13.863281 -30.222656 14.347656 -30.3125 14.578125 -30.375 C 14.816406 -30.4375 14.972656 -30.46875 15.046875 -30.46875 C 15.222656 -30.46875 15.3125 -30.335938 15.3125 -30.078125 C 15.3125 -29.867188 15.222656 -29.617188 15.046875 -29.328125 C 14.878906 -29.046875 14.671875 -28.773438 14.421875 -28.515625 C 14.046875 -28.171875 13.488281 -28 12.75 -28 C 12.03125 -27.925781 11.40625 -27.726562 10.875 -27.40625 C 10.34375 -27.082031 9.832031 -26.5625 9.34375 -25.84375 C 8.675781 -24.820312 8.144531 -23.503906 7.75 -21.890625 C 7.351562 -20.285156 6.945312 -17.910156 6.53125 -14.765625 L 6.078125 -11.421875 L 6.109375 -11.421875 C 8.546875 -14.828125 10.644531 -16.53125 12.40625 -16.53125 C 12.976562 -16.53125 13.414062 -16.335938 13.71875 -15.953125 C 14.019531 -15.578125 14.171875 -14.945312 14.171875 -14.0625 C 14.171875 -13.394531 14.066406 -12.515625 13.859375 -11.421875 C 13.398438 -9.015625 13.066406 -7.316406 12.859375 -6.328125 C 12.554688 -4.679688 12.40625 -3.773438 12.40625 -3.609375 C 12.40625 -3.148438 12.554688 -2.921875 12.859375 -2.921875 C 13.203125 -2.921875 13.523438 -3.144531 13.828125 -3.59375 C 14.128906 -4.039062 14.460938 -4.71875 14.828125 -5.625 C 14.941406 -5.945312 15.082031 -6.109375 15.25 -6.109375 C 15.457031 -6.109375 15.5625 -5.890625 15.5625 -5.453125 C 15.5625 -4.640625 15.304688 -3.773438 14.796875 -2.859375 C 14.285156 -1.953125 13.640625 -1.191406 12.859375 -0.578125 C 12.085938 0.0351562 11.320312 0.34375 10.5625 0.34375 C 9.40625 0.34375 8.828125 -0.414062 8.828125 -1.9375 C 8.828125 -2.539062 8.894531 -3.269531 9.03125 -4.125 C 9.164062 -4.988281 9.375 -6.09375 9.65625 -7.4375 C 9.84375 -8.332031 10.007812 -9.234375 10.15625 -10.140625 C 10.3125 -11.046875 10.398438 -11.773438 10.421875 -12.328125 L 10.421875 -12.546875 C 10.421875 -12.960938 10.289062 -13.171875 10.03125 -13.171875 C 9.644531 -13.171875 9.109375 -12.757812 8.421875 -11.9375 C 7.742188 -11.113281 7.085938 -10.085938 6.453125 -8.859375 C 5.828125 -7.628906 5.410156 -6.445312 5.203125 -5.3125 L 4.65625 -2.5 C 4.488281 -1.800781 4.03125 -1.148438 3.28125 -0.546875 C 2.53125 0.046875 1.796875 0.34375 1.078125 0.34375 Z M 1.078125 0.34375 "/></g></g></g><g fill="#ffffff" fill-opacity="1"><g transform="translate(161.699642, 53.296676)"><g/></g></g><g fill="#ffffff" fill-opacity="1"><g transform="translate(171.423349, 53.296676)"><g/></g></g><g fill="#ffffff" fill-opacity="1"><g transform="translate(181.154102, 53.296676)"><g><path d="M -1.25 0 C -1.363281 0 -1.441406 -0.0234375 -1.484375 -0.078125 C -1.535156 -0.140625 -1.5625 -0.253906 -1.5625 -0.421875 C -1.5625 -1.203125 -1.265625 -1.921875 -0.671875 -2.578125 C -0.0859375 -3.242188 0.539062 -3.578125 1.21875 -3.578125 L 1.984375 -3.578125 C 2.492188 -4.316406 2.863281 -5.507812 3.09375 -7.15625 L 5 -18.65625 C 5.1875 -19.695312 5.535156 -20.65625 6.046875 -21.53125 C 6.554688 -22.414062 7.273438 -23.273438 8.203125 -24.109375 C 9.035156 -24.890625 9.898438 -25.488281 10.796875 -25.90625 C 11.703125 -26.320312 12.703125 -26.53125 13.796875 -26.53125 C 14.328125 -26.53125 14.800781 -26.488281 15.21875 -26.40625 C 15.632812 -26.332031 16.082031 -26.210938 16.5625 -26.046875 C 17.125 -25.859375 17.40625 -25.707031 17.40625 -25.59375 C 17.40625 -25.414062 17.226562 -25.171875 16.875 -24.859375 C 16.53125 -24.546875 16.125 -24.269531 15.65625 -24.03125 C 15.195312 -23.800781 14.828125 -23.6875 14.546875 -23.6875 C 14.429688 -23.6875 14.15625 -23.753906 13.71875 -23.890625 C 13.28125 -24.035156 12.816406 -24.109375 12.328125 -24.109375 C 11.585938 -24.109375 11.019531 -23.957031 10.625 -23.65625 C 10.164062 -23.3125 9.796875 -22.804688 9.515625 -22.140625 C 9.234375 -21.484375 8.988281 -20.519531 8.78125 -19.25 L 6.671875 -6.28125 C 6.460938 -5.03125 6.054688 -4.070312 5.453125 -3.40625 L 5.453125 -3.375 C 6.003906 -3.28125 6.726562 -3.195312 7.625 -3.125 C 8.519531 -3.050781 9.320312 -3.015625 10.03125 -3.015625 C 11.375 -3.015625 12.398438 -3.117188 13.109375 -3.328125 C 13.816406 -3.535156 14.519531 -3.882812 15.21875 -4.375 C 15.445312 -4.601562 15.6875 -4.71875 15.9375 -4.71875 C 16.125 -4.71875 16.21875 -4.554688 16.21875 -4.234375 C 16.21875 -3.609375 15.894531 -2.960938 15.25 -2.296875 C 14.601562 -1.640625 13.722656 -1.09375 12.609375 -0.65625 C 11.492188 -0.21875 10.265625 0 8.921875 0 C 8.253906 0 7.039062 -0.09375 5.28125 -0.28125 C 3.65625 -0.488281 2.394531 -0.59375 1.5 -0.59375 C 0.894531 -0.59375 0.429688 -0.550781 0.109375 -0.46875 C -0.210938 -0.382812 -0.488281 -0.285156 -0.71875 -0.171875 C -0.957031 -0.0546875 -1.132812 0 -1.25 0 Z M -1.25 0 "/></g></g></g><g fill="#ffffff" fill-opacity="1"><g transform="translate(198.726225, 53.296676)"><g><path d="M 4.453125 0.34375 C 3.242188 0.34375 2.296875 -0.0664062 1.609375 -0.890625 C 0.929688 -1.710938 0.59375 -2.863281 0.59375 -4.34375 C 0.59375 -6.082031 1.035156 -7.90625 1.921875 -9.8125 C 2.816406 -11.71875 3.953125 -13.3125 5.328125 -14.59375 C 6.710938 -15.882812 8.097656 -16.53125 9.484375 -16.53125 C 10.242188 -16.53125 10.847656 -16.3125 11.296875 -15.875 C 11.753906 -15.4375 11.984375 -14.800781 11.984375 -13.96875 C 11.984375 -12.925781 11.644531 -11.851562 10.96875 -10.75 C 10.300781 -9.644531 9.378906 -8.625 8.203125 -7.6875 C 7.035156 -6.75 5.722656 -5.992188 4.265625 -5.421875 C 4.335938 -3.816406 5.046875 -3.015625 6.390625 -3.015625 C 7.128906 -3.015625 7.828125 -3.242188 8.484375 -3.703125 C 9.148438 -4.171875 9.738281 -4.800781 10.25 -5.59375 C 10.363281 -5.800781 10.46875 -5.957031 10.5625 -6.0625 C 10.65625 -6.164062 10.75 -6.21875 10.84375 -6.21875 C 10.976562 -6.21875 11.066406 -6.171875 11.109375 -6.078125 C 11.160156 -5.984375 11.1875 -5.820312 11.1875 -5.59375 C 11.1875 -4.851562 10.851562 -4.003906 10.1875 -3.046875 C 9.53125 -2.097656 8.679688 -1.296875 7.640625 -0.640625 C 6.597656 0.015625 5.535156 0.34375 4.453125 0.34375 Z M 5.140625 -8.265625 C 5.648438 -8.265625 6.171875 -8.441406 6.703125 -8.796875 C 7.234375 -9.160156 7.671875 -9.628906 8.015625 -10.203125 C 8.367188 -10.785156 8.546875 -11.414062 8.546875 -12.09375 C 8.546875 -12.925781 8.207031 -13.34375 7.53125 -13.34375 C 6.8125 -13.34375 6.160156 -12.890625 5.578125 -11.984375 C 5.003906 -11.078125 4.640625 -9.875 4.484375 -8.375 C 4.617188 -8.300781 4.835938 -8.265625 5.140625 -8.265625 Z M 7.78125 -26.578125 C 7.664062 -26.578125 7.585938 -26.613281 7.546875 -26.6875 C 7.515625 -26.769531 7.5 -26.914062 7.5 -27.125 C 7.5 -28.03125 7.769531 -28.820312 8.3125 -29.5 C 8.851562 -30.1875 9.53125 -30.53125 10.34375 -30.53125 C 10.738281 -30.53125 11.066406 -30.457031 11.328125 -30.3125 C 11.597656 -30.175781 11.929688 -29.957031 12.328125 -29.65625 C 12.648438 -29.40625 12.921875 -29.222656 13.140625 -29.109375 C 13.359375 -28.992188 13.617188 -28.9375 13.921875 -28.9375 C 14.359375 -28.9375 14.726562 -29.175781 15.03125 -29.65625 C 15.101562 -29.78125 15.164062 -29.921875 15.21875 -30.078125 C 15.28125 -30.242188 15.335938 -30.359375 15.390625 -30.421875 C 15.453125 -30.492188 15.539062 -30.53125 15.65625 -30.53125 C 15.800781 -30.53125 15.890625 -30.488281 15.921875 -30.40625 C 15.953125 -30.320312 15.96875 -30.175781 15.96875 -29.96875 C 15.96875 -29.070312 15.660156 -28.28125 15.046875 -27.59375 C 14.441406 -26.914062 13.722656 -26.578125 12.890625 -26.578125 C 12.492188 -26.578125 12.15625 -26.648438 11.875 -26.796875 C 11.59375 -26.941406 11.242188 -27.164062 10.828125 -27.46875 C 10.523438 -27.707031 10.269531 -27.882812 10.0625 -28 C 9.851562 -28.113281 9.644531 -28.171875 9.4375 -28.171875 C 9 -28.171875 8.664062 -27.925781 8.4375 -27.4375 C 8.363281 -27.300781 8.285156 -27.148438 8.203125 -26.984375 C 8.128906 -26.828125 8.0625 -26.71875 8 -26.65625 C 7.945312 -26.601562 7.875 -26.578125 7.78125 -26.578125 Z M 12.703125 -18.125 C 12.453125 -18.125 12.269531 -18.207031 12.15625 -18.375 C 11.507812 -19.164062 10.707031 -20.441406 9.75 -22.203125 L 9.546875 -21.921875 C 8.503906 -20.765625 7.679688 -19.925781 7.078125 -19.40625 C 6.472656 -18.882812 5.960938 -18.625 5.546875 -18.625 C 5.222656 -18.625 5.0625 -18.703125 5.0625 -18.859375 C 5.0625 -19.023438 5.210938 -19.222656 5.515625 -19.453125 C 6.097656 -19.910156 6.785156 -20.597656 7.578125 -21.515625 C 8.378906 -22.429688 9.015625 -23.179688 9.484375 -23.765625 C 9.753906 -24.128906 10.003906 -24.414062 10.234375 -24.625 C 10.472656 -24.832031 10.765625 -24.9375 11.109375 -24.9375 C 11.367188 -24.9375 11.566406 -24.882812 11.703125 -24.78125 C 11.835938 -24.675781 12 -24.484375 12.1875 -24.203125 C 12.5625 -23.515625 12.894531 -22.960938 13.1875 -22.546875 C 13.488281 -22.128906 13.976562 -21.535156 14.65625 -20.765625 C 14.789062 -20.609375 14.859375 -20.445312 14.859375 -20.28125 C 14.859375 -20.09375 14.78125 -19.894531 14.625 -19.6875 C 14.476562 -19.476562 14.242188 -19.210938 13.921875 -18.890625 C 13.347656 -18.378906 12.941406 -18.125 12.703125 -18.125 Z M 12.703125 -18.125 "/></g></g></g><path fill="#ffffff" d="M 206.332031 15.988281 L 206.449219 15.785156 C 207.085938 16.066406 207.160156 16.070312 207.519531 15.449219 L 209.191406 12.550781 C 209.554688 11.921875 209.515625 11.859375 208.953125 11.449219 L 209.070312 11.246094 L 211.027344 12.375 L 210.910156 12.578125 C 210.265625 12.292969 210.191406 12.289062 209.828125 12.917969 L 208.15625 15.816406 C 207.792969 16.445312 207.839844 16.5 208.40625 16.914062 L 208.289062 17.117188 L 206.332031 15.988281 " fill-opacity="1" fill-rule="nonzero"/><path fill="#ffffff" d="M 217.449219 25.519531 C 216.832031 25.878906 216.765625 25.835938 216.355469 25.277344 C 216.074219 24.636719 216.0625 24.566406 216.691406 24.203125 L 219.589844 22.53125 C 220.214844 22.167969 220.277344 22.210938 220.691406 22.777344 C 220.972656 23.410156 220.976562 23.484375 220.347656 23.847656 Z M 221.820312 24.730469 L 222.027344 24.609375 L 220.898438 22.660156 L 220.894531 22.65625 L 219.769531 20.703125 L 219.566406 20.820312 C 219.84375 21.457031 219.851562 21.535156 219.222656 21.894531 L 216.324219 23.570312 C 215.703125 23.925781 215.640625 23.886719 215.230469 23.324219 L 215.023438 23.445312 L 216.152344 25.394531 L 216.152344 25.398438 L 217.28125 27.351562 L 217.484375 27.234375 C 217.199219 26.589844 217.1875 26.519531 217.816406 26.15625 L 220.714844 24.480469 C 221.34375 24.121094 221.40625 24.160156 221.820312 24.730469 " fill-opacity="1" fill-rule="nonzero"/><g clip-path="url(#4d333581ac)"><path fill="#ffffff" d="M 220.453125 39.359375 C 219.734375 39.359375 219.699219 39.292969 219.625 38.601562 C 219.699219 37.90625 219.726562 37.839844 220.453125 37.839844 L 223.796875 37.839844 C 224.523438 37.839844 224.554688 37.90625 224.632812 38.601562 C 224.554688 39.292969 224.523438 39.359375 223.796875 39.359375 Z M 220.453125 37.105469 C 219.734375 37.105469 219.699219 37.039062 219.625 36.351562 C 219.699219 35.652344 219.726562 35.585938 220.453125 35.585938 L 223.796875 35.585938 C 224.523438 35.585938 224.554688 35.652344 224.632812 36.351562 C 224.554688 37.039062 224.523438 37.105469 223.796875 37.105469 Z M 224.632812 40.859375 L 224.867188 40.859375 L 224.867188 34.09375 L 224.632812 34.09375 C 224.558594 34.785156 224.523438 34.851562 223.796875 34.851562 L 220.453125 34.851562 C 219.734375 34.851562 219.699219 34.785156 219.625 34.09375 L 219.390625 34.09375 L 219.390625 40.859375 L 219.625 40.859375 C 219.699219 40.160156 219.726562 40.089844 220.453125 40.089844 L 223.796875 40.089844 C 224.523438 40.089844 224.558594 40.160156 224.632812 40.859375 " fill-opacity="1" fill-rule="nonzero"/></g><g clip-path="url(#2c6c4d019a)"><path fill="#ffffff" d="M 191.261719 66.925781 L 191.261719 67.160156 L 195.449219 67.160156 L 195.449219 66.925781 C 194.757812 66.839844 194.65625 66.765625 194.84375 66.277344 C 195.238281 65.214844 195.792969 63.839844 196.242188 62.753906 C 196.773438 64.152344 197.386719 65.828125 197.597656 66.445312 C 197.714844 66.757812 197.683594 66.859375 197.058594 66.925781 L 197.058594 67.160156 L 199.199219 67.160156 L 199.199219 66.925781 C 198.6875 66.875 198.542969 66.789062 198.308594 66.167969 C 197.824219 64.917969 197.101562 62.945312 196.605469 61.589844 L 196.324219 61.589844 C 195.914062 62.632812 194.75 65.457031 194.523438 66.015625 C 194.21875 66.773438 194.074219 66.847656 193.515625 66.925781 C 192.828125 66.847656 192.761719 66.8125 192.761719 66.089844 L 192.761719 62.742188 C 192.761719 62.027344 192.828125 61.992188 193.519531 61.917969 L 193.519531 61.683594 L 191.261719 61.683594 L 191.261719 61.917969 C 191.960938 61.992188 192.027344 62.019531 192.027344 62.742188 L 192.027344 66.089844 C 192.027344 66.816406 191.960938 66.847656 191.261719 66.925781 " fill-opacity="1" fill-rule="nonzero"/></g><path fill="#ffffff" d="M 179.480469 57.5625 C 179.839844 56.941406 179.914062 56.945312 180.550781 57.222656 C 181.113281 57.636719 181.160156 57.695312 180.796875 58.320312 L 179.125 61.21875 C 178.761719 61.84375 178.6875 61.84375 178.046875 61.558594 C 177.488281 61.148438 177.445312 61.085938 177.808594 60.460938 Z M 176.09375 60.433594 L 175.972656 60.636719 L 177.925781 61.761719 L 177.929688 61.765625 L 179.875 62.886719 L 179.882812 62.890625 L 181.550781 63.855469 L 181.671875 63.652344 C 181.113281 63.234375 181.0625 63.117188 181.46875 62.785156 C 182.34375 62.066406 183.511719 61.152344 184.441406 60.433594 C 184.203125 61.914062 183.898438 63.671875 183.773438 64.3125 C 183.71875 64.640625 183.640625 64.710938 183.066406 64.457031 L 182.945312 64.660156 L 184.800781 65.734375 L 184.917969 65.527344 C 184.5 65.226562 184.417969 65.082031 184.523438 64.425781 C 184.734375 63.105469 185.089844 61.03125 185.339844 59.609375 L 185.097656 59.46875 C 184.21875 60.167969 181.796875 62.03125 181.324219 62.402344 C 180.683594 62.90625 180.519531 62.898438 179.996094 62.683594 C 179.4375 62.277344 179.398438 62.210938 179.757812 61.585938 L 181.433594 58.6875 C 181.792969 58.066406 181.867188 58.070312 182.503906 58.351562 L 182.621094 58.148438 L 180.671875 57.019531 L 180.664062 57.015625 L 178.714844 55.890625 L 178.597656 56.09375 C 179.164062 56.511719 179.210938 56.566406 178.847656 57.195312 L 177.171875 60.09375 C 176.8125 60.71875 176.734375 60.714844 176.09375 60.433594 " fill-opacity="1" fill-rule="nonzero"/><path fill="#ffffff" d="M 170.988281 46.019531 C 171.605469 45.664062 171.671875 45.703125 172.078125 46.261719 C 172.363281 46.902344 172.371094 46.972656 171.746094 47.335938 L 168.847656 49.011719 C 168.222656 49.371094 168.15625 49.332031 167.742188 48.765625 C 167.464844 48.132812 167.460938 48.054688 168.089844 47.695312 Z M 172.113281 47.972656 C 172.734375 47.613281 172.796875 47.65625 173.207031 48.210938 C 173.488281 48.855469 173.5 48.925781 172.871094 49.289062 L 169.972656 50.960938 C 169.347656 51.324219 169.285156 51.28125 168.871094 50.714844 C 168.589844 50.082031 168.585938 50.007812 169.214844 49.644531 Z M 166.617188 46.8125 L 166.410156 46.929688 L 167.539062 48.878906 L 167.539062 48.886719 L 168.664062 50.832031 L 168.667969 50.835938 L 169.789062 52.78125 L 169.792969 52.789062 L 170.757812 54.460938 L 170.960938 54.339844 C 170.691406 53.699219 170.703125 53.574219 171.222656 53.492188 C 172.339844 53.304688 173.808594 53.097656 174.972656 52.941406 C 174.027344 54.101562 172.882812 55.472656 172.453125 55.960938 C 172.242188 56.21875 172.136719 56.242188 171.765625 55.734375 L 171.5625 55.855469 L 172.632812 57.707031 L 172.839844 57.589844 C 172.625 57.121094 172.625 56.953125 173.046875 56.4375 C 173.886719 55.398438 175.234375 53.78125 176.160156 52.671875 L 176.023438 52.433594 C 174.910156 52.597656 171.882812 53 171.289062 53.082031 C 170.480469 53.199219 170.34375 53.113281 169.996094 52.664062 C 169.71875 52.03125 169.714844 51.957031 170.339844 51.597656 L 173.238281 49.921875 C 173.859375 49.5625 173.921875 49.605469 174.335938 50.167969 L 174.539062 50.046875 L 173.414062 48.097656 L 173.410156 48.089844 L 172.285156 46.148438 L 172.28125 46.140625 L 171.15625 44.191406 L 170.953125 44.308594 C 171.234375 44.953125 171.246094 45.023438 170.621094 45.386719 L 167.722656 47.058594 C 167.09375 47.421875 167.03125 47.378906 166.617188 46.8125 " fill-opacity="1" fill-rule="nonzero"/><path fill="#ffffff" d="M 219.921875 54.082031 L 219.714844 53.964844 C 219.296875 54.519531 219.179688 54.570312 218.851562 54.164062 C 218.128906 53.289062 217.214844 52.121094 216.5 51.191406 C 217.976562 51.429688 219.734375 51.738281 220.375 51.863281 C 220.703125 51.914062 220.773438 51.996094 220.519531 52.570312 L 220.726562 52.6875 L 221.796875 50.832031 L 222.925781 48.875 L 222.722656 48.757812 C 222.308594 49.320312 222.246094 49.359375 221.617188 49 L 218.71875 47.324219 C 218.101562 46.96875 218.105469 46.890625 218.382812 46.253906 L 218.179688 46.136719 L 217.050781 48.09375 L 217.253906 48.210938 C 217.671875 47.644531 217.726562 47.597656 218.355469 47.960938 L 221.253906 49.632812 C 221.878906 49.996094 221.875 50.070312 221.589844 50.714844 C 221.289062 51.136719 221.144531 51.21875 220.488281 51.109375 C 219.167969 50.902344 217.097656 50.542969 215.671875 50.296875 L 215.53125 50.535156 C 216.230469 51.417969 218.09375 53.835938 218.464844 54.3125 C 218.96875 54.953125 218.964844 55.117188 218.746094 55.644531 L 218.949219 55.761719 L 219.921875 54.082031 " fill-opacity="1" fill-rule="nonzero"/><path fill="#ffffff" d="M 174.554688 24.964844 L 174.351562 24.847656 C 174.5625 24.367188 174.515625 24.28125 174.199219 24.273438 C 173.816406 24.277344 173.082031 24.28125 172.105469 24.320312 C 172.441406 24.972656 172.757812 25.582031 173.050781 26.074219 C 173.261719 26.417969 173.375 26.40625 173.714844 25.949219 L 173.921875 26.070312 L 172.9375 27.769531 L 172.734375 27.652344 C 172.941406 27.1875 172.949219 26.921875 172.804688 26.554688 C 172.609375 26.082031 172.355469 25.542969 171.742188 24.34375 C 170.910156 24.371094 170.203125 24.398438 169.675781 24.417969 C 169.003906 24.449219 168.855469 24.488281 168.488281 24.988281 L 168.285156 24.871094 L 169.335938 23.050781 L 169.539062 23.167969 C 169.320312 23.648438 169.394531 23.707031 169.660156 23.707031 C 170.203125 23.707031 170.78125 23.683594 171.464844 23.648438 C 171.1875 23.109375 170.925781 22.605469 170.699219 22.222656 C 170.484375 21.867188 170.367188 21.867188 170.03125 22.316406 L 169.828125 22.199219 L 170.789062 20.53125 L 170.992188 20.652344 C 170.75 21.242188 170.734375 21.40625 170.996094 21.976562 C 171.199219 22.414062 171.328125 22.683594 171.796875 23.625 C 172.644531 23.589844 173.464844 23.566406 174.195312 23.53125 C 174.953125 23.503906 175.117188 23.402344 175.472656 22.90625 L 175.675781 23.023438 L 174.554688 24.964844 " fill-opacity="1" fill-rule="nonzero"/><path fill="#ffffff" d="M 183.875 10.082031 L 183.757812 9.875 L 181.800781 11.007812 L 181.917969 11.210938 C 182.554688 10.929688 182.632812 10.925781 182.992188 11.554688 L 184.667969 14.453125 C 185.023438 15.070312 184.984375 15.136719 184.425781 15.542969 C 183.875 15.792969 183.683594 15.796875 183.011719 15.445312 C 182.363281 15.113281 181.640625 14.71875 180.886719 14.328125 C 180.953125 13.277344 180.976562 12.980469 181.019531 12.5 C 181.074219 11.871094 181.175781 11.738281 181.679688 11.347656 L 181.5625 11.144531 L 179.898438 12.105469 L 180.015625 12.308594 C 180.53125 12.089844 180.632812 12.148438 180.636719 12.5625 C 180.640625 13.007812 180.621094 13.578125 180.585938 14.179688 C 179.980469 13.867188 179.464844 13.601562 178.996094 13.328125 C 178.765625 13.199219 178.734375 13.109375 179.160156 12.804688 L 179.042969 12.597656 L 177.222656 13.648438 L 177.34375 13.851562 C 177.910156 13.605469 178.058594 13.644531 178.65625 13.953125 C 179.121094 14.199219 179.746094 14.527344 180.480469 14.921875 C 180.410156 16.265625 180.363281 16.859375 180.296875 17.367188 C 180.238281 17.757812 180.097656 17.984375 179.6875 18.28125 L 179.804688 18.488281 L 181.503906 17.503906 L 181.386719 17.300781 C 180.863281 17.523438 180.757812 17.476562 180.75 17.074219 C 180.742188 16.503906 180.773438 15.816406 180.808594 15.082031 C 181.675781 15.539062 182.3125 15.898438 182.644531 16.085938 C 182.914062 16.253906 182.914062 16.351562 182.488281 16.664062 L 182.605469 16.867188 L 184.542969 15.75 L 184.550781 15.746094 L 186.496094 14.621094 L 186.378906 14.417969 C 185.734375 14.703125 185.664062 14.714844 185.300781 14.085938 L 183.628906 11.1875 C 183.265625 10.558594 183.308594 10.496094 183.875 10.082031 " fill-opacity="1" fill-rule="nonzero"/><g clip-path="url(#4b0147523c)"><path fill="#ffffff" d="M 170.835938 41.339844 L 171.070312 41.339844 L 171.070312 39.082031 L 170.835938 39.082031 C 170.757812 39.773438 170.726562 39.839844 170 39.839844 L 166.652344 39.839844 C 165.9375 39.839844 165.902344 39.773438 165.828125 39.085938 C 165.886719 38.484375 165.980469 38.316406 166.621094 37.910156 C 167.234375 37.515625 167.933594 37.085938 168.652344 36.628906 C 169.527344 37.210938 169.773438 37.378906 170.167969 37.660156 C 170.683594 38.019531 170.75 38.171875 170.835938 38.804688 L 171.070312 38.804688 L 171.070312 36.882812 L 170.835938 36.882812 C 170.769531 37.4375 170.667969 37.5 170.304688 37.296875 C 169.917969 37.078125 169.4375 36.773438 168.929688 36.445312 C 169.503906 36.074219 169.992188 35.761719 170.464844 35.492188 C 170.691406 35.355469 170.785156 35.375 170.835938 35.894531 L 171.070312 35.894531 L 171.070312 33.796875 L 170.835938 33.796875 C 170.769531 34.414062 170.65625 34.523438 170.09375 34.886719 C 169.648438 35.164062 169.046875 35.542969 168.339844 35.980469 C 167.210938 35.246094 166.722656 34.910156 166.316406 34.597656 C 166.003906 34.355469 165.878906 34.117188 165.828125 33.613281 L 165.589844 33.613281 L 165.589844 35.574219 L 165.828125 35.574219 C 165.894531 35.011719 165.988281 34.945312 166.34375 35.136719 C 166.839844 35.414062 167.421875 35.785156 168.035156 36.183594 C 167.210938 36.707031 166.578125 37.078125 166.25 37.269531 C 165.972656 37.421875 165.886719 37.371094 165.828125 36.847656 L 165.589844 36.847656 L 165.589844 41.339844 L 165.828125 41.339844 C 165.902344 40.640625 165.929688 40.574219 166.652344 40.574219 L 170 40.574219 C 170.726562 40.574219 170.757812 40.640625 170.835938 41.339844 " fill-opacity="1" fill-rule="nonzero"/></g><g clip-path="url(#48019dd89e)"><path fill="#ffffff" d="M 198.710938 12.253906 C 198.710938 12.96875 198.644531 13.003906 197.960938 13.082031 C 197.269531 13.003906 197.203125 12.976562 197.203125 12.253906 L 197.203125 8.910156 C 197.203125 8.1875 197.269531 8.148438 197.960938 8.074219 C 198.644531 8.148438 198.710938 8.1875 198.710938 8.910156 Z M 200.210938 8.074219 L 200.210938 7.839844 L 195.710938 7.839844 L 195.710938 8.074219 C 196.398438 8.148438 196.46875 8.183594 196.46875 8.910156 L 196.46875 12.253906 C 196.46875 12.96875 196.402344 13.003906 195.71875 13.082031 C 195.117188 13.019531 194.949219 12.925781 194.546875 12.289062 C 194.152344 11.675781 193.722656 10.972656 193.265625 10.257812 C 193.847656 9.378906 194.015625 9.136719 194.292969 8.738281 C 194.65625 8.226562 194.808594 8.160156 195.441406 8.074219 L 195.441406 7.839844 L 193.519531 7.839844 L 193.519531 8.074219 C 194.074219 8.140625 194.132812 8.242188 193.929688 8.605469 C 193.710938 8.992188 193.410156 9.472656 193.082031 9.980469 C 192.710938 9.40625 192.398438 8.917969 192.128906 8.445312 C 191.992188 8.21875 192.007812 8.125 192.53125 8.074219 L 192.53125 7.839844 L 190.433594 7.839844 L 190.433594 8.074219 C 191.046875 8.140625 191.15625 8.25 191.519531 8.816406 C 191.800781 9.261719 192.179688 9.859375 192.617188 10.570312 C 191.882812 11.699219 191.546875 12.1875 191.234375 12.59375 C 190.988281 12.90625 190.753906 13.03125 190.246094 13.082031 L 190.246094 13.316406 L 192.210938 13.316406 L 192.210938 13.082031 C 191.648438 13.015625 191.578125 12.921875 191.773438 12.566406 C 192.050781 12.070312 192.421875 11.488281 192.820312 10.871094 C 193.339844 11.699219 193.710938 12.332031 193.90625 12.660156 C 194.058594 12.9375 194.007812 13.023438 193.484375 13.082031 L 193.484375 13.316406 L 200.210938 13.316406 L 200.210938 13.082031 C 199.511719 13.003906 199.445312 12.980469 199.445312 12.253906 L 199.445312 8.910156 C 199.445312 8.183594 199.511719 8.148438 200.210938 8.074219 " fill-opacity="1" fill-rule="nonzero"/></g><path fill="#ffffff" d="M 207.488281 64.402344 L 207.609375 64.605469 L 207.617188 64.601562 L 209.289062 63.636719 L 209.167969 63.433594 C 208.527344 63.707031 208.402344 63.691406 208.320312 63.175781 C 208.132812 62.054688 207.925781 60.589844 207.769531 59.421875 C 208.929688 60.371094 210.300781 61.515625 210.792969 61.941406 C 211.050781 62.152344 211.070312 62.257812 210.5625 62.628906 L 210.683594 62.832031 L 212.535156 61.761719 L 212.417969 61.558594 C 211.949219 61.769531 211.78125 61.769531 211.265625 61.347656 C 210.226562 60.507812 208.609375 59.160156 207.5 58.234375 L 207.261719 58.375 C 207.425781 59.484375 207.832031 62.511719 207.910156 63.109375 C 208.027344 63.914062 207.941406 64.054688 207.492188 64.398438 C 207.492188 64.402344 207.492188 64.402344 207.488281 64.402344 " fill-opacity="1" fill-rule="nonzero"/><g clip-path="url(#11c24f5003)"><path fill="#ffffff" d="M 79.894531 10.082031 C 79.753906 10.765625 80.011719 11.375 80.359375 11.925781 C 80.742188 12.535156 81.15625 13.144531 81.640625 13.671875 C 82.5 14.601562 83.207031 15.640625 83.878906 16.703125 C 84.117188 17.074219 84.355469 17.453125 84.644531 17.785156 C 84.914062 18.09375 85.246094 18.382812 85.828125 18.179688 C 85.222656 17.101562 84.6875 16.019531 84.019531 15.019531 C 83.574219 14.351562 82.929688 13.8125 82.382812 13.203125 C 81.898438 12.667969 81.410156 12.132812 80.972656 11.558594 C 80.660156 11.15625 80.65625 10.996094 80.617188 10.453125 C 81.183594 10.550781 81.710938 11.023438 82.410156 10.589844 C 81.992188 10.355469 81.636719 10.148438 81.273438 9.953125 C 80.496094 9.519531 79.742188 9.058594 79.214844 8.308594 C 79.054688 8.078125 78.917969 7.851562 78.933594 7.484375 C 79.707031 7.71875 80.378906 8.246094 81.296875 7.949219 C 81.125 7.816406 81.003906 7.703125 80.867188 7.609375 C 80.152344 7.132812 79.414062 6.679688 78.722656 6.171875 C 78.425781 5.949219 78.214844 5.613281 77.996094 5.273438 C 78.566406 5.460938 79.113281 5.625 79.816406 5.40625 C 79.605469 5.214844 79.476562 5.070312 79.316406 4.964844 C 78.84375 4.664062 78.339844 4.40625 77.886719 4.074219 C 77.417969 3.734375 76.972656 3.351562 76.558594 2.945312 C 76.378906 2.761719 76.289062 2.488281 76.164062 2.265625 C 76.519531 1.972656 76.820312 2.101562 77.085938 2.210938 C 77.644531 2.441406 78.199219 2.691406 78.742188 2.960938 C 82.820312 4.960938 86.980469 6.765625 91.261719 8.28125 C 91.691406 8.433594 91.691406 8.429688 92.027344 8.257812 C 91.839844 7.878906 91.449219 7.816406 91.121094 7.675781 C 87.972656 6.289062 84.804688 4.925781 81.652344 3.539062 C 80.265625 2.929688 78.902344 2.269531 77.523438 1.640625 C 77.25 1.515625 76.96875 1.402344 76.675781 1.332031 C 75.882812 1.148438 75.257812 1.828125 75.449219 2.628906 C 75.601562 3.25 76.011719 3.703125 76.453125 4.117188 C 76.839844 4.476562 77.085938 4.871094 77.292969 5.355469 C 77.550781 5.964844 77.972656 6.507812 78.359375 7.148438 C 77.96875 8.5 79 9.246094 79.886719 10.078125 Z M 91.214844 23.710938 C 91.269531 24.152344 91.082031 24.539062 90.832031 24.882812 C 90.390625 25.480469 89.90625 26.050781 89.445312 26.644531 C 88.492188 27.855469 87.207031 28.445312 85.71875 28.652344 C 84.984375 28.753906 84.269531 28.757812 83.667969 28.21875 C 83.601562 28.160156 83.507812 28.097656 83.425781 28.097656 C 82.761719 28.097656 82.28125 27.777344 81.933594 27.285156 C 80.402344 27.242188 79.867188 26.640625 80.203125 25.347656 C 79.09375 25.023438 78.429688 24.347656 78.554688 23.203125 C 78.300781 22.859375 78.007812 22.609375 77.914062 22.300781 C 77.8125 21.964844 77.886719 21.574219 77.886719 21.242188 C 77.636719 21.019531 77.40625 20.851562 77.21875 20.648438 C 76.53125 19.894531 76.699219 19.015625 77.628906 18.613281 C 77.902344 18.496094 78.214844 18.445312 78.511719 18.410156 C 79.800781 18.25 81.125 18.226562 82.269531 17.476562 C 82.359375 17.417969 82.523438 17.46875 82.820312 17.46875 C 82.601562 17.753906 82.5 17.980469 82.335938 18.082031 C 81.859375 18.363281 81.371094 18.664062 80.847656 18.828125 C 80.164062 19.039062 79.433594 19.125 78.726562 19.265625 C 78.390625 19.332031 78.039062 19.371094 77.84375 19.730469 C 78.359375 20.570312 79.308594 20.820312 80.042969 21.378906 C 79.582031 21.757812 79.125 21.648438 78.671875 21.511719 C 78.621094 22.082031 78.65625 22.167969 79.089844 22.203125 C 79.53125 22.238281 79.972656 22.230469 80.421875 22.230469 C 80.777344 22.230469 81.125 22.230469 81.386719 22.59375 C 80.808594 23.148438 80.003906 23.050781 79.292969 23.296875 C 79.386719 23.753906 79.660156 24.03125 80.054688 24.164062 C 80.472656 24.296875 80.910156 24.378906 81.339844 24.460938 C 81.722656 24.53125 82.109375 24.574219 82.5625 24.636719 C 82.296875 25.027344 81.921875 25.050781 81.617188 25.179688 C 81.425781 25.257812 81.199219 25.273438 81.027344 25.378906 C 80.800781 25.515625 80.597656 25.742188 80.726562 26.011719 C 80.8125 26.1875 81.042969 26.375 81.230469 26.40625 C 81.542969 26.453125 81.882812 26.40625 82.199219 26.355469 C 82.65625 26.277344 83.109375 26.160156 83.566406 26.0625 C 83.789062 26.015625 84.015625 25.941406 84.257812 26.148438 C 83.929688 26.742188 83.261719 26.75 82.652344 27.171875 C 83.066406 27.097656 83.3125 27.0625 83.558594 27.007812 C 83.988281 26.914062 84.417969 26.785156 84.855469 26.722656 C 85.035156 26.695312 85.316406 26.746094 85.414062 26.871094 C 85.617188 27.132812 85.316406 27.265625 85.164062 27.425781 C 85.152344 27.441406 85.164062 27.480469 85.164062 27.511719 C 86.539062 27.371094 87.035156 27.132812 87.976562 26.242188 C 88.992188 25.285156 90.023438 24.339844 91.074219 23.359375 C 91.128906 23.484375 91.207031 23.597656 91.222656 23.726562 Z M 102.574219 8.464844 C 102.878906 8.257812 103.222656 8.089844 103.542969 7.910156 C 104.800781 7.203125 106.0625 6.5 107.304688 5.769531 C 107.601562 5.59375 107.832031 5.3125 108.097656 5.085938 C 108.292969 4.917969 108.503906 4.722656 108.78125 4.835938 C 109.074219 4.949219 109.175781 5.230469 109.175781 5.523438 C 109.175781 5.84375 109.1875 6.191406 109.082031 6.488281 C 108.859375 7.140625 108.5625 7.769531 108.273438 8.449219 C 108.546875 9.171875 108.574219 9.570312 108.25 10.355469 C 108.019531 10.910156 107.808594 11.429688 107.871094 12.074219 C 107.925781 12.632812 107.652344 13.167969 107.289062 13.609375 C 107.023438 13.933594 106.746094 14.265625 106.414062 14.511719 C 106.164062 14.695312 106.0625 14.90625 105.980469 15.191406 C 105.519531 16.8125 104.433594 17.8125 102.816406 18.226562 C 102.527344 18.296875 102.203125 18.304688 101.914062 18.234375 C 101.730469 18.191406 101.519531 17.96875 101.46875 17.785156 C 101.4375 17.667969 101.648438 17.417969 101.804688 17.332031 C 102.253906 17.085938 102.738281 16.902344 103.195312 16.675781 C 103.789062 16.386719 104.308594 16 104.683594 15.441406 C 104.535156 15.332031 104.394531 15.226562 104.183594 15.070312 C 104.378906 14.832031 104.53125 14.601562 104.730469 14.429688 C 105.082031 14.128906 105.472656 13.871094 105.839844 13.585938 C 106.234375 13.273438 106.566406 12.914062 106.761719 12.433594 C 106.152344 12.730469 105.734375 13.304688 105.050781 13.449219 C 104.867188 13.140625 104.988281 12.882812 105.152344 12.652344 C 105.355469 12.363281 105.589844 12.101562 105.820312 11.839844 C 106.207031 11.40625 106.628906 10.996094 106.992188 10.539062 C 107.320312 10.128906 107.609375 9.679688 107.601562 9.082031 C 106.917969 9.542969 106.46875 10.304688 105.515625 10.429688 C 105.566406 10.214844 105.566406 10.066406 105.628906 9.960938 C 105.792969 9.707031 105.972656 9.464844 106.152344 9.222656 C 106.675781 8.535156 107.21875 7.859375 107.726562 7.160156 C 107.960938 6.835938 108.195312 6.476562 108.203125 6.019531 C 108.109375 6.039062 108.058594 6.039062 108.027344 6.066406 C 106.511719 7.195312 104.855469 8.101562 103.121094 8.855469 C 102.871094 8.964844 102.625 9.140625 102.273438 8.859375 C 102.367188 8.726562 102.4375 8.550781 102.570312 8.457031 Z M 91.410156 20.449219 C 91.234375 20.171875 91.535156 20.050781 91.710938 19.914062 C 92.207031 19.53125 92.722656 19.164062 93.214844 18.777344 C 94.457031 17.789062 95.683594 16.78125 96.707031 15.550781 C 97.355469 14.765625 97.867188 13.921875 98.105469 12.921875 C 98.191406 12.5625 98.277344 12.199219 98.402344 11.851562 C 98.445312 11.726562 98.601562 11.644531 98.714844 11.546875 C 98.789062 11.675781 98.910156 11.796875 98.933594 11.933594 C 98.964844 12.109375 98.933594 12.304688 98.894531 12.484375 C 98.425781 14.582031 97.535156 16.445312 95.921875 17.917969 C 95.5625 18.25 95.230469 18.613281 94.867188 18.945312 C 94.230469 19.527344 93.574219 20.097656 92.785156 20.472656 C 92.535156 20.59375 92.269531 20.675781 91.941406 20.800781 C 91.777344 20.699219 91.519531 20.625 91.414062 20.457031 Z M 98.363281 6.101562 C 97.488281 5.710938 97.140625 5.871094 96.648438 6.710938 C 96.425781 7.085938 96.199219 7.453125 95.980469 7.816406 C 95.527344 7.675781 95.40625 7.386719 95.480469 7.027344 C 95.597656 6.441406 95.832031 5.910156 96.296875 5.511719 C 96.792969 5.082031 97.320312 4.859375 98.023438 5.046875 C 99.316406 5.382812 100.246094 6.296875 101.316406 6.980469 C 101.660156 7.195312 101.535156 7.648438 101.152344 7.820312 C 101.027344 7.875 100.878906 7.886719 100.75 7.925781 C 99.988281 8.148438 99.300781 8.453125 99.03125 9.292969 C 98.65625 9.015625 98.617188 8.964844 98.699219 8.761719 C 98.757812 8.609375 98.839844 8.453125 98.953125 8.347656 C 99.375 7.960938 99.820312 7.597656 100.292969 7.195312 C 99.664062 6.828125 99.039062 6.402344 98.367188 6.101562 Z M 89.902344 15.300781 C 90.804688 14.414062 91.59375 13.441406 92.269531 12.371094 C 92.390625 12.183594 92.5 11.953125 92.796875 12.003906 C 92.902344 12.476562 92.882812 12.527344 92.117188 13.800781 C 91.550781 14.757812 90.804688 15.515625 89.8125 16.003906 C 89.5 15.664062 89.71875 15.472656 89.902344 15.296875 Z M 89.902344 15.300781 " fill-opacity="1" fill-rule="nonzero"/></g></svg>